<svg width="57" height="48" viewBox="0 0 57 48" fill="none" xmlns="http://www.w3.org/2000/svg">
<g id="&#240;&#159;&#166;&#134; icon &#34;database monitor&#34;">
<path id="Vector" d="M2 8.98907V22.9672C2 22.9672 2 29.9563 22.8038 29.9563C43.6076 29.9563 43.6076 22.9672 43.6076 22.9672V8.98907" stroke="black" stroke-opacity="0.7" stroke-width="3" stroke-linecap="round" stroke-linejoin="round"/>
<path id="Vector_2" d="M22.8038 2C43.6076 2 43.6076 8.98908 43.6076 8.98908C43.6076 8.98908 43.6076 15.9782 22.8038 15.9782C2 15.9782 2 8.98908 2 8.98908C2 8.98908 2 2 22.8038 2Z" stroke="black" stroke-opacity="0.7" stroke-width="3" stroke-linecap="round" stroke-linejoin="round"/>
<path id="Vector_3" d="M22.8038 43.9345C2 43.9345 2 36.9454 2 36.9454V22.9672" stroke="black" stroke-opacity="0.7" stroke-width="3" stroke-linecap="round" stroke-linejoin="round"/>
<path id="Vector_4" d="M43.6075 46.2641H48.0655H52.5234M48.0655 40.2736H55V32.286H41.1307V40.2736H48.0655Z" stroke="black" stroke-opacity="0.7" stroke-width="3" stroke-linecap="round" stroke-linejoin="round"/>
</g>
</svg>
