<svg width="150" height="141" viewBox="0 0 150 141" fill="none" xmlns="http://www.w3.org/2000/svg">
<path d="M65.625 26.3808C61.7508 26.3808 58.5938 29.342 58.5938 32.976V43.968C58.5938 44.034 58.6102 44.0933 58.6125 44.1571C55.7618 42.5952 52.5201 41.7713 49.2188 41.7696C38.9133 41.7696 30.4688 49.6311 30.4688 59.2755V65.952H25.7812C23.2031 65.952 21.0938 67.9306 21.0938 70.3488V112.118C21.0938 114.537 23.2031 116.515 25.7812 116.515H121.875C125.749 116.515 128.906 113.554 128.906 109.92V98.928C128.905 97.8384 128.615 96.7662 128.064 95.8071C127.513 94.848 126.717 94.032 125.747 93.432C126.717 92.8323 127.513 92.0164 128.064 91.0572C128.616 90.0981 128.905 89.0257 128.906 87.936V76.944C128.905 75.8544 128.615 74.7822 128.064 73.8231C127.513 72.864 126.717 72.048 125.747 71.448C126.717 70.8483 127.513 70.0324 128.064 69.0732C128.616 68.1141 128.905 67.0417 128.906 65.952V54.96C128.905 53.8704 128.615 52.7982 128.064 51.8391C127.513 50.88 126.717 50.064 125.747 49.464C126.717 48.8643 127.513 48.0483 128.064 47.0892C128.616 46.1301 128.905 45.0577 128.906 43.968V32.976C128.906 29.342 125.749 26.3808 121.875 26.3808H65.625ZM65.625 28.5792H121.875C124.493 28.5792 126.562 30.5204 126.562 32.976V43.968C126.562 46.4236 124.493 48.3648 121.875 48.3648H65.625C64.9711 48.3648 64.3547 48.2417 63.7945 48.0219C63.793 48.0219 63.7914 48.0219 63.7898 48.0219C63.6509 47.9664 63.5148 47.9048 63.382 47.8372C63.3712 47.8312 63.3603 47.8253 63.3492 47.8196C62.8011 47.2328 62.2123 46.6806 61.5867 46.1664H121.875V43.968H60.9375V32.976H121.875V30.7776H61.5727C62.3766 29.4608 63.8695 28.5792 65.625 28.5792ZM79.6875 35.1744V41.7696H86.7188V35.1744H79.6875ZM89.0625 35.1744V41.7696H96.0938V35.1744H89.0625ZM98.4375 35.1744V41.7696H105.469V35.1744H98.4375ZM82.0312 37.3728H84.375V39.5712H82.0312V37.3728ZM91.4062 37.3728H93.75V39.5712H91.4062V37.3728ZM100.781 37.3728H103.125V39.5712H100.781V37.3728ZM49.2188 43.968C58.2562 43.968 65.625 50.8336 65.625 59.2755V65.952H60.9422V59.2909C60.9422 53.2277 55.7391 48.3648 49.2141 48.3648C42.6891 48.3648 37.4859 53.2277 37.4859 59.2909V65.952H32.8125V59.2755C32.8125 50.8336 40.1812 43.968 49.2188 43.968ZM65.4375 50.5456C65.5008 50.5456 65.5617 50.5632 65.625 50.5632H121.875C124.493 50.5632 126.562 52.5044 126.562 54.96V65.952C126.562 68.4076 124.493 70.3488 121.875 70.3488H77.3438C77.3438 69.5464 77.093 68.799 76.6875 68.1504H121.875V65.952H67.9688V59.2755C67.9688 57.785 67.7438 56.3428 67.3641 54.96H121.875V52.7616H66.6047C66.2721 51.9979 65.8821 51.2574 65.4375 50.5456ZM49.2141 50.5632C54.518 50.5632 58.5984 54.3906 58.5984 59.2909V65.952H39.8297V59.2909C39.8297 54.3906 43.9102 50.5632 49.2141 50.5632ZM79.6875 57.1584V63.7536H86.7188V57.1584H79.6875ZM89.0625 57.1584V63.7536H96.0938V57.1584H89.0625ZM98.4375 57.1584V63.7536H105.469V57.1584H98.4375ZM82.0312 59.3568H84.375V61.5552H82.0312V59.3568ZM91.4062 59.3568H93.75V61.5552H91.4062V59.3568ZM100.781 59.3568H103.125V61.5552H100.781V59.3568ZM25.7812 68.1504H72.6562C73.9758 68.1504 75 69.1111 75 70.3488V94.5312H23.4375V70.3488C23.4375 69.1111 24.4617 68.1504 25.7812 68.1504ZM49.2188 72.5472C47.6663 72.5519 46.1788 73.1324 45.081 74.1621C43.9832 75.1918 43.3643 76.587 43.3594 78.0432C43.3594 79.736 44.3109 81.2155 45.7031 82.2466V90.13H52.7344V82.2422C54.1266 81.2111 55.0758 79.7338 55.0781 78.0432C55.0781 75.0204 52.4414 72.5472 49.2188 72.5472ZM77.3438 72.5472H121.875C124.493 72.5472 126.562 74.4884 126.562 76.944V87.936C126.562 90.3916 124.493 92.3328 121.875 92.3328H77.3438V90.1344H121.875V87.936H77.3438V76.944H121.875V74.7456H77.3438V72.5472ZM49.2188 74.7456C49.9921 74.7455 50.7439 74.9848 51.3575 75.4263C51.9712 75.8678 52.4123 76.4869 52.6126 77.1875C52.8129 77.8882 52.7612 78.6313 52.4653 79.3015C52.1695 79.9717 51.6462 80.5317 50.9766 80.8946L50.3906 81.2111V87.936H48.0469V81.2155L47.4609 80.8989C46.9265 80.6095 46.4827 80.1933 46.1742 79.692C45.8656 79.1907 45.7031 78.6221 45.7031 78.0432C45.7031 76.2098 47.2641 74.7456 49.2188 74.7456ZM79.6875 79.1424V85.7376H86.7188V79.1424H79.6875ZM89.0625 79.1424V85.7376H96.0938V79.1424H89.0625ZM98.4375 79.1424V85.7376H105.469V79.1424H98.4375ZM82.0312 81.3408H84.375V83.5392H82.0312V81.3408ZM91.4062 81.3408H93.75V83.5392H91.4062V81.3408ZM100.781 81.3408H103.125V83.5392H100.781V81.3408ZM77.3438 94.5312H121.875C124.493 94.5312 126.562 96.4724 126.562 98.928V109.92C126.562 112.376 124.493 114.317 121.875 114.317H76.6852C77.0906 113.666 77.3438 112.923 77.3438 112.118H121.875V109.92H77.3438V98.928H121.875V96.7296H77.3438V94.5312ZM23.4375 96.7296H75V107.722H23.4375V96.7296ZM26.9531 98.928V105.523H33.9844V98.928H26.9531ZM36.3281 98.928V105.523H43.3594V98.928H36.3281ZM45.7031 98.928V105.523H52.7344V98.928H45.7031ZM55.0781 98.928V105.523H62.1094V98.928H55.0781ZM64.4531 98.928V105.523H71.4844V98.928H64.4531ZM29.2969 101.126H31.6406V103.325H29.2969V101.126ZM38.6719 101.126H41.0156V103.325H38.6719V101.126ZM48.0469 101.126H50.3906V103.325H48.0469V101.126ZM57.4219 101.126H59.7656V103.325H57.4219V101.126ZM66.7969 101.126H69.1406V103.325H66.7969V101.126ZM79.6875 101.126V107.722H86.7188V101.126H79.6875ZM89.0625 101.126V107.722H96.0938V101.126H89.0625ZM98.4375 101.126V107.722H105.469V101.126H98.4375ZM82.0312 103.325H84.375V105.523H82.0312V103.325ZM91.4062 103.325H93.75V105.523H91.4062V103.325ZM100.781 103.325H103.125V105.523H100.781V103.325ZM23.4375 109.92H75V112.118C75 113.356 73.9758 114.317 72.6562 114.317H25.7812C24.4617 114.317 23.4375 113.356 23.4375 112.118V109.92Z" fill="url(#paint0_linear_40_437)"/>
<defs>
<linearGradient id="paint0_linear_40_437" x1="21.0938" y1="71.448" x2="119.531" y2="71.448" gradientUnits="userSpaceOnUse">
<stop stop-color="#000092"/>
<stop offset="1" stop-color="#FF00F3"/>
</linearGradient>
</defs>
</svg>
