<svg width="56" height="45" viewBox="0 0 56 45" fill="none" xmlns="http://www.w3.org/2000/svg">
<g id="&#240;&#159;&#166;&#134; icon &#34;server&#34;">
<path id="Vector" d="M12.4 34.6318L12.426 34.6092" stroke="black" stroke-width="3" stroke-linecap="round" stroke-linejoin="round"/>
<path id="Vector_2" d="M12.4 10.1732L12.426 10.1506" stroke="black" stroke-width="3" stroke-linecap="round" stroke-linejoin="round"/>
<path id="Vector_3" d="M2 17.0828V3.22293C2 2.54753 2.69844 2 3.56 2H52.44C53.3016 2 54 2.54753 54 3.22293V17.0828C54 17.7582 53.3016 18.3057 52.44 18.3057H3.56C2.69844 18.3057 2 17.7582 2 17.0828Z" stroke="black" stroke-width="3"/>
<path id="Vector_4" d="M2 41.5414V27.6815C2 27.0061 2.69844 26.4586 3.56 26.4586H52.44C53.3016 26.4586 54 27.0061 54 27.6815V41.5414C54 42.2168 53.3016 42.7643 52.44 42.7643H3.56C2.69844 42.7643 2 42.2168 2 41.5414Z" stroke="black" stroke-width="3"/>
</g>
</svg>
