<svg width="152" height="144" viewBox="0 0 152 144" fill="none" xmlns="http://www.w3.org/2000/svg">
<path d="M45.1202 4.4953C44.4904 4.4953 43.8863 4.73252 43.4409 5.15448C42.9955 5.57644 42.7452 6.14856 42.7452 6.7453V47.2453C42.7452 47.842 42.9955 48.4147 43.4409 48.8367C43.8863 49.2586 44.4904 49.4953 45.1202 49.4953H106.87C107.5 49.4953 108.104 49.2586 108.55 48.8367C108.995 48.4147 109.245 47.842 109.245 47.2453V6.7453C109.245 6.14856 108.995 5.57644 108.55 5.15448C108.104 4.73252 107.5 4.4953 106.87 4.4953H45.1202ZM47.4952 8.9953H104.495V44.9953H47.4952V8.9953Z" fill="#2B4255"/>
<path fill-rule="evenodd" clip-rule="evenodd" d="M66.4952 49.0498V58.9501H71.2452V49.0498H66.4952ZM80.7452 49.0498V58.9501H85.4952V49.0498H80.7452Z" fill="#2B4255"/>
<path fill-rule="evenodd" clip-rule="evenodd" d="M61.9875 58.4953V62.9953H90.4875V58.4953H61.9875Z" fill="#2B4255"/>
<path d="M52.25 13.5H99.75V40.5H52.25V13.5Z" fill="#F8B84E"/>
<path d="M2.37024 94.4953V125.995H45.1202V94.4953H2.37024ZM7.12024 98.9953H40.3702V121.495H7.12024V98.9953Z" fill="#2B4255"/>
<path fill-rule="evenodd" clip-rule="evenodd" d="M14.2452 125.55V135.45H18.9952V125.55H14.2452ZM28.4952 125.55V135.45H33.2452V125.55H28.4952Z" fill="#2B4255"/>
<path fill-rule="evenodd" clip-rule="evenodd" d="M9.49524 134.995V139.495H37.9952V134.995H9.49524Z" fill="#2B4255"/>
<path d="M11.875 103.5H35.625V117H11.875V103.5Z" fill="#F8B84E"/>
<path d="M54.6202 94.4953V125.995H97.3702V94.4953H54.6202ZM59.3702 98.9953H92.6202V121.495H59.3702V98.9953Z" fill="#2B4255"/>
<path fill-rule="evenodd" clip-rule="evenodd" d="M66.4952 125.55V135.45H71.2452V125.55H66.4952ZM80.7452 125.55V135.45H85.4952V125.55H80.7452Z" fill="#2B4255"/>
<path fill-rule="evenodd" clip-rule="evenodd" d="M61.7452 134.995V139.495H90.2452V134.995H61.7452Z" fill="#2B4255"/>
<path d="M64.125 103.5H87.875V117H64.125V103.5Z" fill="#F8B84E"/>
<path d="M106.87 94.4953V125.995H149.62V94.4953H106.87ZM111.62 98.9953H144.87V121.495H111.62V98.9953Z" fill="#2B4255"/>
<path fill-rule="evenodd" clip-rule="evenodd" d="M118.745 125.55V135.45H123.495V125.55H118.745ZM132.995 125.55V135.45H137.745V125.55H132.995Z" fill="#2B4255"/>
<path fill-rule="evenodd" clip-rule="evenodd" d="M113.995 134.995V139.495H142.495V134.995H113.995Z" fill="#2B4255"/>
<path d="M116.375 103.5H140.125V117H116.375V103.5Z" fill="#F8B84E"/>
<path fill-rule="evenodd" clip-rule="evenodd" d="M73.6202 67.4953V76.4953H78.3702V67.4953H73.6202ZM21.3702 76.4953V80.9953H130.62V76.4953H21.3702Z" fill="#2B4255"/>
<path fill-rule="evenodd" clip-rule="evenodd" d="M21.3702 78.7453V89.9953H26.1202V78.7453H21.3702ZM73.6202 78.7453V89.9953H78.3702V78.7453H73.6202ZM125.87 78.7453V89.9953H130.62V78.7453H125.87Z" fill="#2B4255"/>
</svg>
